# xmcd
#
# Track frame offsets:
#	150
#	26394
#	41916
#	57081
#	68026
#	81707
#	99329
#	112403
#	138446
#	161454
#	188552
#
# Disc length: 2964 seconds
#
# Revision: 4
# Processed by: cddbd v1.5.2PL0 Copyright (c) Steve Scherf et al.
# Submitted via: EasyCDDAExtractor 2010.6.0.0
#
DISCID=950b920b
DTITLE=Vladimir Vysotsky - 14 Баллада о детстве
DYEAR=2002
DGENRE=Vocal
TTITLE0=Бег иноходца
TTITLE1=Товарищи учёные
TTITLE2=Никакой ошибки
TTITLE3=Случай в ресторане
TTITLE4=Песня автозавистника
TTITLE5=Песня автомобилиста
TTITLE6=Посещение музы , или Песенка плагиатора
TTITLE7=Баллада о детстве
TTITLE8=Инструкция перед поездкой за рубеж, или пол часа в месткоме
TTITLE9=Ñëó÷àé íà òàìîæíå
TTITLE10=Монолог Хлопуши (С. Есенин из поэмы Пугачёв)
EXTD=
EXTT0=
EXTT1=
EXTT2=
EXTT3=
EXTT4=
EXTT5=
EXTT6=
EXTT7=
EXTT8=
EXTT9=
EXTT10=
PLAYORDER=
